# xmcd CD database file
#
# Track frame offsets:
#	150
#	25770
#	49115
#	73962
#	88107
#	108887
#	134270
#	148415
#	163015
#	174770
#	188027
#
# Disc length: 2653 seconds
#
# Revision: 0
# Processed by: cddbd v1.4PL0 Copyright (c) Steve Scherf et al.
# Submitted via: CDex 1.51
#
DISCID=970a5b0b
DTITLE=Stan Kenton - Contemporary Concepts
DYEAR=1956
DGENRE=Jazz
TTITLE0=What's New
TTITLE1=Stella By Starlight
TTITLE2=I've Got You Under My Skin
TTITLE3=Cherokee
TTITLE4=Stompin' at the Savoy
TTITLE5=Yesterdays
TTITLE6=Limelight
TTITLE7=Sunset Tower
TTITLE8=Opus in Chartreuse
TTITLE9=Opus in Turquoise
TTITLE10=Opus in Beige
EXTD=YEAR: 1956
EXTT0=
EXTT1=
EXTT2=
EXTT3=
EXTT4=
EXTT5=
EXTT6=
EXTT7=
EXTT8=
EXTT9=
EXTT10=
PLAYORDER=
